<svg width="54" height="54" viewBox="0 0 54 54" fill="none" xmlns="http://www.w3.org/2000/svg">
<rect width="54" height="54" rx="5" fill="#FCFCFC"/>
<path d="M2 26.3575V12.0201H4.36656L10.7843 12C13.3782 12 15.3905 12.6083 16.8211 13.8248C18.2517 15.0413 18.967 16.8259 18.967 19.1787C18.967 21.5316 18.2517 23.3162 16.8211 24.5327C15.3905 25.7492 13.3782 26.3575 10.7843 26.3575H2ZM10.5637 14.6068H5.20889V23.7507H10.5637C12.2484 23.7507 13.5253 23.3831 14.3944 22.6478C15.2634 21.9125 15.698 20.7562 15.698 19.1787C15.698 17.5879 15.2634 16.4316 14.3944 15.7097C13.5253 14.9744 12.2484 14.6068 10.5637 14.6068Z" fill="#1B3E2A"/>
<path d="M25.9722 26.4577C24.1806 26.4577 22.7834 26.0166 21.7806 25.1343C20.7778 24.2386 20.2764 22.9285 20.2764 21.204C20.2764 19.4662 20.7778 18.1561 21.7806 17.2738C22.7834 16.3781 24.1806 15.9303 25.9722 15.9303H30.9861C32.1627 15.9303 33.0585 16.211 33.6736 16.7725C34.302 17.3206 34.6162 18.1093 34.6162 19.1386C34.6162 21.2375 33.4062 22.2869 30.9861 22.2869H23.4051C23.6859 23.5301 24.5416 24.1517 25.9722 24.1517H34.0947V26.4577H25.9722ZM25.9722 18.2363C24.5951 18.2363 23.7461 18.8178 23.4252 19.9808H30.8457C31.1131 19.9808 31.3204 19.9006 31.4675 19.7402C31.6279 19.5798 31.7081 19.3592 31.7081 19.0785C31.7081 18.517 31.4207 18.2363 30.8457 18.2363H25.9722Z" fill="#1B3E2A"/>
<path d="M2 42V37.7489C2 36.4121 2.37437 35.376 3.12311 34.6408C3.87186 33.9055 4.96154 33.5379 6.39217 33.5379H12.9905C14.2607 33.5379 14.8957 32.9965 14.8957 31.9137C14.8957 30.8308 14.2607 30.2894 12.9905 30.2894H2.32089V27.6826H13.6122C15.0027 27.6826 16.079 28.0569 16.8411 28.8055C17.6166 29.5542 18.0044 30.5902 18.0044 31.9137C18.0044 33.2371 17.6166 34.2732 16.8411 35.0218C16.079 35.7704 15.0027 36.1447 13.6122 36.1447H6.8334C6.25847 36.1447 5.82393 36.2918 5.52978 36.5859C5.249 36.8666 5.10862 37.2676 5.10862 37.789V39.4132H17.6233V42H2Z" fill="#2EC778"/>
<path d="M20.0179 42V27.6626H35.3404V30.2694H23.2268V34.2397H33.776V36.8465H23.2268V42H20.0179Z" fill="#2EC778"/>
<path d="M34.1305 42L40.5884 27.6626H45.5421L52 42H48.5103L47.1465 38.9721H38.9839L37.6201 42H34.1305ZM40.1471 36.3653H45.9833L43.1956 30.1691H42.9349L40.1471 36.3653Z" fill="#2EC778"/>
</svg>
