<svg width="24" height="24" viewBox="0 0 24 24" fill="none" xmlns="http://www.w3.org/2000/svg">
<path d="M9.5 15.0156C13.5667 15.0156 16.9998 15.6843 17 18.2686C17 20.8529 13.5448 21.5 9.5 21.5C5.4332 21.5 2 20.8295 2 18.2461C2.00031 15.662 5.45441 15.0156 9.5 15.0156ZM18.999 7.5C19.4951 7.50003 19.8972 7.9092 19.8975 8.41113V9.58789H21.1006C21.5956 9.58789 21.9998 9.99706 22 10.499C22 11.0012 21.5958 11.4111 21.1006 11.4111H19.8975V12.5889C19.8972 13.0908 19.4951 13.5 18.999 13.5C18.504 13.5 18.0999 13.0908 18.0996 12.5889V11.4111H16.8994C16.4032 11.4111 16 11.0012 16 10.499C16.0002 9.99706 16.4033 9.58789 16.8994 9.58789H18.0996V8.41113C18.0999 7.90918 18.504 7.5 18.999 7.5ZM9.5 2.5C12.2544 2.5 14.4626 4.73638 14.4629 7.52637C14.4629 10.3166 12.2546 12.5537 9.5 12.5537C6.74543 12.5537 4.53711 10.3166 4.53711 7.52637C4.53736 4.73638 6.74559 2.5 9.5 2.5Z" fill="var(--interface-color-primary)" />
</svg>
