<svg width="24" height="24" viewBox="0 0 24 24" fill="none" xmlns="http://www.w3.org/2000/svg">
<path d="M16.335 1.99902C19.723 1.99902 22 4.37702 22 7.91602V16.083C22 19.622 19.723 21.999 16.334 21.999H7.66602C4.27702 21.999 2 19.622 2 16.083V7.91602C2 4.37702 4.27702 1.99902 7.66602 1.99902H16.335ZM8.84082 9.39844C7.4069 9.39853 6.24023 10.5651 6.24023 11.999C6.24023 13.434 7.4069 14.6005 8.84082 14.6006C10.0128 14.6006 10.9953 13.817 11.3193 12.749H13.4307V13.8506C13.4307 14.2645 13.7668 14.6004 14.1807 14.6006C14.5947 14.6006 14.9307 14.2646 14.9307 13.8506V12.749H16.2607V13.8506C16.2607 14.2645 16.5969 14.6004 17.0107 14.6006C17.4247 14.6006 17.7607 14.2646 17.7607 13.8506V11.999C17.7607 11.585 17.4247 11.249 17.0107 11.249H11.3193C10.9953 10.182 10.0128 9.39844 8.84082 9.39844ZM8.84082 10.8975C9.44782 10.8975 9.94336 11.392 9.94336 12C9.94332 12.607 9.44779 13.1006 8.84082 13.1006C8.23397 13.1004 7.7393 12.6069 7.73926 12C7.73926 11.3921 8.23395 10.8976 8.84082 10.8975Z" fill="var(--interface-color-primary)" />
</svg>
