<svg width="25" height="24" viewBox="0 0 25 24" fill="none" xmlns="http://www.w3.org/2000/svg">
<path d="M19.0518 8.69727C19.2521 8.69727 19.4344 8.78391 19.5781 8.93066C19.7122 9.08766 19.7803 9.28326 19.7607 9.48926C19.7601 9.56524 19.224 16.2984 18.918 19.1338C18.7262 20.8748 17.5969 21.9319 15.9033 21.9609C14.6012 21.9899 13.3284 22 12.0752 22C10.7447 22 9.44363 21.9899 8.18066 21.9609C6.54384 21.9219 5.41342 20.8458 5.23145 19.1338C4.9165 16.2876 4.38998 9.56134 4.37988 9.48926C4.3701 9.28326 4.43725 9.08766 4.57227 8.93066C4.70531 8.78386 4.89724 8.69727 5.09863 8.69727H19.0518ZM14.1484 2C15.0378 2 15.8326 2.61708 16.0625 3.49707L16.2266 4.22656C16.3596 4.82141 16.878 5.24296 17.4746 5.24316H20.4082C20.7994 5.24316 21.1248 5.56576 21.125 5.97656V6.35742C21.1247 6.75821 20.7994 7.09082 20.4082 7.09082H3.73535C3.34333 7.09062 3.01783 6.75809 3.01758 6.35742V5.97656C3.01779 5.56588 3.34331 5.24336 3.73535 5.24316H6.66895C7.26475 5.24313 7.78296 4.82151 7.91699 4.22754L8.07129 3.5459C8.31005 2.61709 9.09517 2.00011 9.99414 2H14.1484Z" fill="var(--interface-color-primary-alt)"/>
</svg>
