<svg width="24" height="24" viewBox="0 0 24 24" fill="none" xmlns="http://www.w3.org/2000/svg">
<path fill-rule="evenodd" clip-rule="evenodd" d="M19.9903 18.953C20.5472 18.9533 21 19.4123 21 19.9765C21 20.5418 20.5472 20.9997 19.9903 20.9999H14.2793C13.7224 20.9997 13.2696 20.5418 13.2696 19.9765C13.2696 19.4123 13.7224 18.9533 14.2793 18.953H19.9903ZM12.2413 3.95696C13.1538 2.78523 14.7463 2.67792 16.0303 3.69914L17.5049 4.87102C18.1097 5.34399 18.5135 5.9673 18.6514 6.62297C18.8105 7.34407 18.6404 8.05236 18.1631 8.66496L9.37602 20.0282C8.97278 20.5439 8.37873 20.8339 7.74223 20.8447L4.24027 20.8876C4.04934 20.8875 3.89013 20.7588 3.8477 20.5761L3.0518 17.1249C2.91402 16.4908 3.05198 15.8351 3.45512 15.33L9.68461 7.2675C9.79072 7.13901 9.98125 7.11849 10.1084 7.21379L12.7295 9.29973C12.8993 9.43947 13.1329 9.51459 13.377 9.48235C13.897 9.41785 14.2474 8.94461 14.1944 8.43938C14.1625 8.18156 14.0349 7.96677 13.8653 7.80559C13.8122 7.76259 11.3184 5.76262 11.3184 5.76262C11.1593 5.6336 11.1276 5.39736 11.2549 5.23723L12.2413 3.95696Z" fill="var(--interface-color-primary)" />
</svg>
