<svg width="83" height="50" viewBox="0 0 83 50" fill="none" xmlns="http://www.w3.org/2000/svg">
<path d="M0 23.8336V0.0332867H3.91969L14.5494 0C18.8455 0 22.1784 1.00971 24.5479 3.02913C26.9174 5.04854 28.1022 8.0111 28.1022 11.9168C28.1022 15.8225 26.9174 18.785 24.5479 20.8044C22.1784 22.8239 18.8455 23.8336 14.5494 23.8336H0ZM14.184 4.32732H5.31483V19.5062H14.184C16.9742 19.5062 19.0891 18.896 20.5285 17.6755C21.968 16.4549 22.6877 14.5354 22.6877 11.9168C22.6877 9.27601 21.968 7.35645 20.5285 6.15811C19.0891 4.93759 16.9742 4.32732 14.184 4.32732Z" fill="#1B3E2A"/>
<path d="M39.7048 24C36.7373 24 34.4231 23.2677 32.7623 21.8031C31.1014 20.3162 30.2709 18.1415 30.2709 15.2788C30.2709 12.3939 31.1014 10.2191 32.7623 8.75451C34.4231 7.26768 36.7373 6.52427 39.7048 6.52427H48.0092C49.958 6.52427 51.4417 6.99029 52.4604 7.92233C53.5012 8.83218 54.0216 10.1415 54.0216 11.8502C54.0216 15.3343 52.0175 17.0763 48.0092 17.0763H35.4529C35.9179 19.1401 37.3352 20.172 39.7048 20.172H53.1579V24H39.7048ZM39.7048 10.3523C37.4238 10.3523 36.0176 11.3176 35.4861 13.2483H47.7767C48.2196 13.2483 48.5628 13.1151 48.8064 12.8488C49.0721 12.5825 49.205 12.2164 49.205 11.7503C49.205 10.8183 48.7289 10.3523 47.7767 10.3523H39.7048Z" fill="#1B3E2A"/>
<path d="M0 49.8003V42.7434C0 40.5243 0.620064 38.8044 1.86019 37.5839C3.10032 36.3634 4.90515 35.7531 7.27468 35.7531H18.2033C20.3071 35.7531 21.359 34.8544 21.359 33.0569C21.359 31.2594 20.3071 30.3606 18.2033 30.3606H0.531483V26.0333H19.233C21.5361 26.0333 23.3188 26.6546 24.5811 27.8974C25.8655 29.1401 26.5077 30.8599 26.5077 33.0569C26.5077 35.2538 25.8655 36.9736 24.5811 38.2164C23.3188 39.4591 21.5361 40.0804 19.233 40.0804H8.00547C7.05323 40.0804 6.33351 40.3246 5.84631 40.8128C5.38127 41.2788 5.14875 41.9445 5.14875 42.81V45.5062H25.8766V49.8003H0Z" fill="#2EC778"/>
<path d="M29.8427 49.8003V26H55.2211V30.3273H35.1576V36.9182H52.6301V41.2455H35.1576V49.8003H29.8427Z" fill="#2EC778"/>
<path d="M53.2171 49.8003L63.9132 26H72.118L82.8141 49.8003H77.0342L74.7754 44.7739H61.2558L58.997 49.8003H53.2171ZM63.1824 40.4466H72.8488L68.2315 30.1609H67.7997L63.1824 40.4466Z" fill="#2EC778"/>
</svg>
