<svg width="24" height="24" viewBox="0 0 24 24" fill="none" xmlns="http://www.w3.org/2000/svg">
<path d="M9.34961 14.8574C13.3348 14.8575 16.6982 15.4912 16.6982 17.9404C16.6982 20.3876 13.3133 21 9.34961 21C5.36428 21 2 20.3662 2 17.917C2.00035 15.47 5.38601 14.8574 9.34961 14.8574ZM15.5693 13.3828C17.085 13.3541 18.7156 13.5584 19.3174 13.7021C20.5931 13.9465 21.4319 14.4437 21.7793 15.1689C22.0738 15.763 22.0738 16.4537 21.7793 17.0479C21.2479 18.1707 19.5335 18.5321 18.8672 18.625C18.7292 18.6442 18.6191 18.5286 18.6338 18.3926C18.9741 15.2805 16.266 13.805 15.5654 13.4658C15.5363 13.4496 15.5294 13.4264 15.5322 13.4111C15.5342 13.4016 15.547 13.3858 15.5693 13.3828ZM9.34961 3C12.0491 3.00014 14.2119 5.11902 14.2119 7.7627C14.2118 10.4062 12.049 12.5243 9.34961 12.5244C6.65107 12.5244 4.48648 10.4063 4.48633 7.7627C4.48633 5.11893 6.65097 3 9.34961 3ZM15.834 3.7959C18.4415 3.79596 20.4886 6.19675 19.791 8.87109C19.3204 10.6734 17.6169 11.87 15.7188 11.8213C15.5281 11.8175 15.3411 11.7992 15.1592 11.7695C15.0282 11.7466 14.9612 11.6024 15.0361 11.4951C15.7602 10.4516 16.1738 9.19495 16.1738 7.84863C16.1738 6.44199 15.7232 5.13173 14.9395 4.05566C14.9142 4.02217 14.8957 3.97176 14.9209 3.93262C14.9404 3.90203 14.9795 3.88465 15.0156 3.87695C15.2798 3.82425 15.5512 3.7959 15.834 3.7959Z" fill="var(--interface-color-primary)"/>
</svg>
