<svg width="24" height="24" viewBox="0 0 24 24" fill="none" xmlns="http://www.w3.org/2000/svg">
<path d="M22.2393 12.041C22.659 12.0412 22.9998 12.3755 23 12.7881C23 13.1999 22.6591 13.534 22.2393 13.5342H21.1768V17.0938C21.1765 19.2488 19.39 20.9998 17.1943 21H15.6006C15.1798 20.9998 14.8389 20.6656 14.8389 20.2529C14.8389 19.8412 15.1798 19.5071 15.6006 19.5068H17.1943C18.551 19.5067 19.655 18.4251 19.6553 17.0938V13.5342H17.0322V14.5254C17.0421 15.7657 16.0266 16.7792 14.7617 16.791H9.23828C7.97438 16.7792 6.95891 15.7657 6.96875 14.5254V13.5342H4.3457V17.0977C4.34595 18.4241 5.44705 19.5038 6.7998 19.5059L8.42773 19.5068C8.84773 19.5068 9.18945 19.8411 9.18945 20.2529C9.18837 20.6657 8.84771 21 8.42676 21L6.79785 20.999C4.60707 20.997 2.82349 19.2469 2.82324 17.0977V13.5342H1.76172C1.34185 13.534 1 13.1998 1 12.7881C1.0002 12.3755 1.34197 12.0412 1.76172 12.041H22.2393ZM14.7627 6.74219C15.3675 6.74224 15.9482 6.98093 16.3711 7.40527C16.7971 7.83379 17.0332 8.40966 17.0322 9.00879V10.2539C17.0272 10.3999 16.9086 10.5184 16.7598 10.5225H7.23926C7.09138 10.5174 6.97272 10.399 6.96973 10.2539V9.00879C6.95875 7.76841 7.97439 6.75505 9.23828 6.74219H14.7627ZM17.1934 3C19.3904 3 21.1768 4.75187 21.1768 6.90625V8.7627C21.1765 9.17423 20.8367 9.50954 20.416 9.50977C19.9961 9.50977 19.6545 9.17437 19.6543 8.7627V6.90625C19.6543 5.57558 18.5504 4.49316 17.1934 4.49316H15.6006C15.1806 4.49316 14.8398 4.15892 14.8398 3.74707C14.8401 3.33445 15.1807 3.00001 15.6006 3H17.1934ZM8.42773 3C8.84767 3.00002 9.1884 3.33432 9.18848 3.74707C9.18848 4.15891 8.84872 4.49315 8.42773 4.49316L6.79883 4.49414C5.44698 4.4961 4.34693 5.5758 4.34668 6.90234V8.76172C4.34668 9.17349 4.00484 9.50865 3.58496 9.50879C3.16496 9.50879 2.82324 9.17357 2.82324 8.76172V6.90234C2.82349 4.75307 4.607 3.00294 6.79785 3.00098L8.42676 3H8.42773Z" fill="var(--interface-color-primary)"/>
</svg>
