<svg width="43" height="112" viewBox="0 0 43 112" fill="none" xmlns="http://www.w3.org/2000/svg">
<path d="M35.7071 0.292893C35.3166 -0.0976311 34.6834 -0.0976311 34.2929 0.292893L27.9289 6.65685C27.5384 7.04738 27.5384 7.68054 27.9289 8.07107C28.3195 8.46159 28.9526 8.46159 29.3431 8.07107L35 2.41421L40.6569 8.07107C41.0474 8.46159 41.6805 8.46159 42.0711 8.07107C42.4616 7.68054 42.4616 7.04738 42.0711 6.65685L35.7071 0.292893ZM35 111.5C35.5523 111.5 36 111.052 36 110.5C36 109.948 35.5523 109.5 35 109.5V110.5V111.5ZM35 1H34V3.625H35H36V1H35ZM35 8.875H34V14.125H35H36V8.875H35ZM35 19.375H34V22H35H36V19.375H35ZM35 22H34C34 23.0698 33.8951 24.1142 33.6954 25.1237L34.6764 25.3178L35.6574 25.5118C35.8823 24.3752 36 23.2009 36 22H35ZM32.1366 31.4455L31.3056 30.8891C30.1372 32.6344 28.6344 34.1372 26.8891 35.3056L27.4455 36.1366L28.0018 36.9676C29.9643 35.6537 31.6537 33.9643 32.9676 32.0018L32.1366 31.4455ZM21.3178 38.6764L21.1237 37.6954C20.1142 37.8951 19.0698 38 18 38V39V40C19.2009 40 20.3752 39.8823 21.5118 39.6574L21.3178 38.6764ZM18 39V38C16.7991 38 15.6248 38.1177 14.4882 38.3426L14.6822 39.3236L14.8763 40.3046C15.8858 40.1049 16.9302 40 18 40V39ZM8.55453 41.8634L7.99821 41.0324C6.03572 42.3463 4.34628 44.0357 3.03242 45.9982L3.86339 46.5545L4.69436 47.1109C5.86278 45.3656 7.3656 43.8628 9.11085 42.6944L8.55453 41.8634ZM1.32358 52.6822L0.342591 52.4882C0.117734 53.6248 0 54.7991 0 56H1H2C2 54.9302 2.10486 53.8858 2.30457 52.8763L1.32358 52.6822ZM1 56H0V56.125H1H2V56H1ZM1 56.375H0V56.5H1H2V56.375H1ZM1 56.5H0V59.7083H1H2L2 56.5H1ZM1 66.125H0L0 72.5417H1H2L2 66.125H1ZM1 78.9583H0L0 85.375H1H2V78.9583H1ZM1 91.7917H0L0 95H1H2V91.7917H1ZM1 95H0C0 96.1007 0.107914 97.1771 0.31404 98.2191L1.29503 98.025L2.27602 97.8309C2.09504 96.9161 2 95.9697 2 95H1ZM3.61074 103.612L2.77977 104.168C3.98411 105.967 5.53272 107.516 7.33164 108.72L7.88796 107.889L8.44428 107.058C6.8626 105.999 5.50061 104.637 4.44171 103.056L3.61074 103.612ZM13.475 110.205L13.2809 111.186C14.3229 111.392 15.3993 111.5 16.5 111.5V110.5V109.5C15.5303 109.5 14.5839 109.405 13.6691 109.224L13.475 110.205ZM16.5 110.5V111.5H21.125V110.5V109.5H16.5V110.5ZM30.375 110.5V111.5H35V110.5V109.5H30.375V110.5ZM35.7071 0.292893C35.3166 -0.0976311 34.6834 -0.0976311 34.2929 0.292893L27.9289 6.65685C27.5384 7.04738 27.5384 7.68054 27.9289 8.07107C28.3195 8.46159 28.9526 8.46159 29.3431 8.07107L35 2.41421L40.6569 8.07107C41.0474 8.46159 41.6805 8.46159 42.0711 8.07107C42.4616 7.68054 42.4616 7.04738 42.0711 6.65685L35.7071 0.292893ZM35 111.5C35.5523 111.5 36 111.052 36 110.5C36 109.948 35.5523 109.5 35 109.5V110.5V111.5ZM35 1H34V3.625H35H36V1H35ZM35 8.875H34V14.125H35H36V8.875H35ZM35 19.375H34V22H35H36V19.375H35ZM35 22H34C34 23.0698 33.8951 24.1142 33.6954 25.1237L34.6764 25.3178L35.6574 25.5118C35.8823 24.3752 36 23.2009 36 22H35ZM32.1366 31.4455L31.3056 30.8891C30.1372 32.6344 28.6344 34.1372 26.8891 35.3056L27.4455 36.1366L28.0018 36.9676C29.9643 35.6537 31.6537 33.9643 32.9676 32.0018L32.1366 31.4455ZM21.3178 38.6764L21.1237 37.6954C20.1142 37.8951 19.0698 38 18 38V39V40C19.2009 40 20.3752 39.8823 21.5118 39.6574L21.3178 38.6764ZM18 39V38C16.7991 38 15.6248 38.1177 14.4882 38.3426L14.6822 39.3236L14.8763 40.3046C15.8858 40.1049 16.9302 40 18 40V39ZM8.55453 41.8634L7.99821 41.0324C6.03572 42.3463 4.34628 44.0357 3.03242 45.9982L3.86339 46.5545L4.69436 47.1109C5.86278 45.3656 7.3656 43.8628 9.11085 42.6944L8.55453 41.8634ZM1.32358 52.6822L0.342591 52.4882C0.117734 53.6248 0 54.7991 0 56H1H2C2 54.9302 2.10486 53.8858 2.30457 52.8763L1.32358 52.6822ZM1 56H0V56.125H1H2V56H1ZM1 56.375H0V56.5H1H2V56.375H1ZM1 56.5H0V59.7083H1H2L2 56.5H1ZM1 66.125H0L0 72.5417H1H2L2 66.125H1ZM1 78.9583H0L0 85.375H1H2V78.9583H1ZM1 91.7917H0L0 95H1H2V91.7917H1ZM1 95H0C0 96.1007 0.107914 97.1771 0.31404 98.2191L1.29503 98.025L2.27602 97.8309C2.09504 96.9161 2 95.9697 2 95H1ZM3.61074 103.612L2.77977 104.168C3.98411 105.967 5.53272 107.516 7.33164 108.72L7.88796 107.889L8.44428 107.058C6.8626 105.999 5.50061 104.637 4.44171 103.056L3.61074 103.612ZM13.475 110.205L13.2809 111.186C14.3229 111.392 15.3993 111.5 16.5 111.5V110.5V109.5C15.5303 109.5 14.5839 109.405 13.6691 109.224L13.475 110.205ZM16.5 110.5V111.5H21.125V110.5V109.5H16.5V110.5ZM30.375 110.5V111.5H35V110.5V109.5H30.375V110.5Z" fill="var(--text-primary)"/>
</svg>
