<svg width="43" height="107" viewBox="0 0 43 107" fill="none" xmlns="http://www.w3.org/2000/svg">
<path d="M34.2929 0.292893C34.6834 -0.0976311 35.3166 -0.0976311 35.7071 0.292893L42.0711 6.65685C42.4616 7.04738 42.4616 7.68054 42.0711 8.07107C41.6805 8.46159 41.0474 8.46159 40.6569 8.07107L35 2.41421L29.3431 8.07107C28.9526 8.46159 28.3195 8.46159 27.9289 8.07107C27.5384 7.68054 27.5384 7.04738 27.9289 6.65685L34.2929 0.292893ZM1 107C0.447716 107 0 106.552 0 106C0 105.448 0.447716 105 1 105V106V107ZM35 1H36V4.3125H35H34V1H35ZM35 10.9375H36V17.5625H35H34V10.9375H35ZM35 24.1875H36V27.5H35H34V24.1875H35ZM35 27.5H36V30.6875H35H34V27.5H35ZM35 37.0625H36V43.4375H35H34V37.0625H35ZM35 49.8125H36V53H35H34V49.8125H35ZM35 53H36V56.125H35H34V53H35ZM35 62.375H36V68.625H35H34V62.375H35ZM35 74.875H36V81.125H35H34V74.875H35ZM35 87.375H36V90.5H35H34V87.375H35ZM35 90.5H36C36 91.6007 35.8921 92.6771 35.686 93.7191L34.705 93.525L33.724 93.3309C33.905 92.4161 34 91.4697 34 90.5H35ZM32.3893 99.112L33.2202 99.6684C32.0159 101.467 30.4673 103.016 28.6684 104.22L28.112 103.389L27.5557 102.558C29.1374 101.499 30.4994 100.137 31.5583 98.5557L32.3893 99.112ZM22.525 105.705L22.7191 106.686C21.6771 106.892 20.6007 107 19.5 107V106V105C20.4697 105 21.4161 104.905 22.3309 104.724L22.525 105.705ZM19.5 106V107H14.875V106V105H19.5V106ZM5.625 106V107H1V106V105H5.625V106ZM34.2929 0.292893C34.6834 -0.0976311 35.3166 -0.0976311 35.7071 0.292893L42.0711 6.65685C42.4616 7.04738 42.4616 7.68054 42.0711 8.07107C41.6805 8.46159 41.0474 8.46159 40.6569 8.07107L35 2.41421L29.3431 8.07107C28.9526 8.46159 28.3195 8.46159 27.9289 8.07107C27.5384 7.68054 27.5384 7.04738 27.9289 6.65685L34.2929 0.292893ZM1 107C0.447716 107 0 106.552 0 106C0 105.448 0.447716 105 1 105V106V107ZM35 1H36V4.3125H35H34V1H35ZM35 10.9375H36V17.5625H35H34V10.9375H35ZM35 24.1875H36V27.5H35H34V24.1875H35ZM35 27.5H36V30.6875H35H34V27.5H35ZM35 37.0625H36V43.4375H35H34V37.0625H35ZM35 49.8125H36V53H35H34V49.8125H35ZM35 53H36V56.125H35H34V53H35ZM35 62.375H36V68.625H35H34V62.375H35ZM35 74.875H36V81.125H35H34V74.875H35ZM35 87.375H36V90.5H35H34V87.375H35ZM35 90.5H36C36 91.6007 35.8921 92.6771 35.686 93.7191L34.705 93.525L33.724 93.3309C33.905 92.4161 34 91.4697 34 90.5H35ZM32.3893 99.112L33.2202 99.6684C32.0159 101.467 30.4673 103.016 28.6684 104.22L28.112 103.389L27.5557 102.558C29.1374 101.499 30.4994 100.137 31.5583 98.5557L32.3893 99.112ZM22.525 105.705L22.7191 106.686C21.6771 106.892 20.6007 107 19.5 107V106V105C20.4697 105 21.4161 104.905 22.3309 104.724L22.525 105.705ZM19.5 106V107H14.875V106V105H19.5V106ZM5.625 106V107H1V106V105H5.625V106Z" fill="var(--text-primary)"/>
</svg>
