<svg width="24" height="24" viewBox="0 0 24 24" fill="none" xmlns="http://www.w3.org/2000/svg">
<path d="M11.9785 2C14.3461 2 16.4387 3.46214 17.2109 5.62793C17.2922 5.84657 17.2715 6.08525 17.1699 6.29395C17.0683 6.50258 16.8866 6.66187 16.6621 6.73242C16.2049 6.89043 15.6972 6.65247 15.5244 6.19531C15.0062 4.7233 13.5842 3.73927 11.999 3.73926C9.92511 3.73926 8.2495 5.3704 8.23828 7.36719V8.70898L8.22559 8.71094H16.2314C18.5888 8.71107 20.5 10.5809 20.5 12.8867V17.8242C20.5 20.1301 18.5888 21.9999 16.2314 22H7.76758C5.41125 21.9999 3.5 20.1301 3.5 17.8242V12.8867C3.5 10.9904 4.80035 9.40645 6.57031 8.89746L6.45996 8.91113V7.38672C6.48051 4.41608 8.95063 2.00008 11.9785 2ZM11.9951 13.3828C11.5074 13.3828 11.1115 13.7701 11.1113 14.2471V16.4541C11.1115 16.941 11.5075 17.3281 11.9951 17.3281C12.4928 17.328 12.8885 16.9409 12.8887 16.4541V14.2471C12.8885 13.7701 12.4929 13.3829 11.9951 13.3828Z" fill="var(--interface-color-primary)" />
</svg>
