<svg width="24" height="24" viewBox="0 0 24 24" fill="none" xmlns="http://www.w3.org/2000/svg">
<path d="M23 10.9565V13.0435C23 13.6007 22.5076 14.0567 21.8808 14.0769H19.6872C18.4785 14.0769 17.3704 13.2765 17.2697 12.1824C17.2026 11.5441 17.4712 10.9463 17.9412 10.5309C18.3553 10.1459 18.9261 9.92307 19.5529 9.92307H21.8808C22.5076 9.94334 23 10.3992 23 10.9565Z" fill="var(--interface-color-primary)"/>
<path d="M21.2581 15.7588H19.6897C17.6057 15.7588 15.8508 14.2447 15.6753 12.3176C15.5766 11.2165 15.9934 10.1153 16.827 9.33176C17.529 8.63294 18.5051 8.24118 19.5581 8.24118H21.2581C21.5762 8.24118 21.8394 7.98706 21.8065 7.68C21.5652 5.10706 19.7994 3.34941 17.178 3.05294C16.9147 3.01059 16.6405 3 16.3554 3H6.48406C6.17695 3 5.88081 3.02118 5.59564 3.06353C2.79877 3.40235 1 5.41412 1 8.29412V15.7059C1 18.6282 3.45686 21 6.48406 21H16.3554C19.4264 21 21.5433 19.1471 21.8065 16.32C21.8394 16.0129 21.5762 15.7588 21.2581 15.7588ZM13.0649 9.61765H6.48406C6.03437 9.61765 5.66145 9.25765 5.66145 8.82353C5.66145 8.38941 6.03437 8.02941 6.48406 8.02941H13.0649C13.5146 8.02941 13.8875 8.38941 13.8875 8.82353C13.8875 9.25765 13.5146 9.61765 13.0649 9.61765Z" fill="var(--interface-color-primary)"/>
</svg>
